<?xml version="1.0" encoding="UTF-8"?>
<svg xmlns="http://www.w3.org/2000/svg" width="1200" height="800" viewBox="0 0 1200 800" fill="none">
  <path opacity="0.2" d="M1112.81 691.34H87.2C77.2644 691.34 69.21 699.394 69.21 709.33V709.34C69.21 719.276 77.2644 727.33 87.2 727.33H1112.81C1122.75 727.33 1130.8 719.276 1130.8 709.34V709.33C1130.8 699.394 1122.75 691.34 1112.81 691.34Z" fill="#4A4A4A"></path>
  <path d="M225.24 264.86C225.242 268.601 224.134 272.258 222.057 275.37C219.98 278.481 217.027 280.906 213.571 282.339C210.115 283.771 206.312 284.146 202.643 283.417C198.974 282.688 195.604 280.887 192.959 278.241C190.313 275.596 188.512 272.226 187.783 268.557C187.053 264.888 187.429 261.085 188.861 257.629C190.294 254.173 192.719 251.22 195.83 249.143C198.942 247.066 202.599 245.958 206.34 245.96C211.352 245.963 216.157 247.955 219.701 251.499C223.245 255.042 225.237 259.848 225.24 264.86Z" fill="#F2BA49"></path>
  <path d="M868.47 181.21C865.99 187.21 859.3 198.75 842.61 207.52C842.326 207.664 842.088 207.883 841.921 208.154C841.754 208.425 841.666 208.737 841.666 209.055C841.666 209.373 841.754 209.685 841.921 209.956C842.088 210.227 842.326 210.446 842.61 210.59C848.72 213.59 861.87 221.54 868.93 236.33C869.065 236.605 869.27 236.839 869.526 237.008C869.781 237.177 870.077 237.275 870.383 237.291C870.689 237.307 870.993 237.242 871.265 237.101C871.537 236.96 871.767 236.749 871.93 236.49C875.29 230.76 883.81 218.27 897.8 211.04C898.081 210.889 898.315 210.664 898.476 210.389C898.636 210.114 898.718 209.8 898.712 209.482C898.706 209.163 898.612 208.852 898.44 208.584C898.269 208.315 898.026 208.1 897.74 207.96C891.89 205.16 879.99 197.75 871.5 181.08C871.341 180.812 871.113 180.592 870.84 180.444C870.566 180.296 870.257 180.224 869.946 180.238C869.635 180.251 869.333 180.348 869.074 180.52C868.814 180.691 868.605 180.93 868.47 181.21Z" fill="#F2BA49"></path>
  <path d="M1070.79 346.89C1069.67 349.57 1066.66 354.77 1059.16 358.72C1059.03 358.784 1058.92 358.882 1058.85 359.004C1058.77 359.126 1058.73 359.267 1058.73 359.41C1058.73 359.553 1058.77 359.694 1058.85 359.816C1058.92 359.938 1059.03 360.036 1059.16 360.1C1061.9 361.46 1067.82 365.02 1070.99 371.67C1071.05 371.797 1071.14 371.905 1071.26 371.983C1071.38 372.061 1071.51 372.106 1071.65 372.113C1071.79 372.12 1071.93 372.089 1072.06 372.024C1072.18 371.958 1072.29 371.86 1072.36 371.74C1075.13 366.939 1079.15 362.984 1084 360.3C1084.13 360.235 1084.24 360.135 1084.31 360.013C1084.39 359.89 1084.43 359.749 1084.43 359.605C1084.43 359.461 1084.39 359.32 1084.31 359.197C1084.24 359.075 1084.13 358.975 1084 358.91C1078.85 356.288 1074.7 352.043 1072.2 346.83C1072.13 346.695 1072.03 346.583 1071.9 346.506C1071.77 346.43 1071.63 346.392 1071.48 346.399C1071.33 346.405 1071.18 346.455 1071.06 346.542C1070.94 346.629 1070.84 346.75 1070.79 346.89Z" fill="#F2BA49"></path>
  <path d="M161.26 308.22C159.73 311.91 155.6 319.06 145.26 324.48C145.086 324.57 144.94 324.707 144.838 324.874C144.736 325.042 144.682 325.234 144.682 325.43C144.682 325.626 144.736 325.818 144.838 325.986C144.94 326.153 145.086 326.29 145.26 326.38C149.03 328.25 157.16 333.14 161.53 342.28C161.609 342.458 161.735 342.61 161.895 342.721C162.055 342.831 162.242 342.896 162.436 342.907C162.63 342.919 162.824 342.876 162.996 342.785C163.167 342.694 163.311 342.557 163.41 342.39C165.48 338.84 170.75 331.13 179.41 326.66C179.586 326.571 179.735 326.434 179.839 326.266C179.942 326.097 179.997 325.903 179.997 325.705C179.997 325.507 179.942 325.313 179.839 325.144C179.735 324.976 179.586 324.839 179.41 324.75C175.79 323.02 168.41 318.44 163.19 308.14C163.095 307.961 162.952 307.813 162.777 307.712C162.602 307.612 162.401 307.563 162.2 307.571C161.998 307.579 161.802 307.645 161.636 307.76C161.47 307.874 161.339 308.034 161.26 308.22Z" fill="#F2BA49"></path>
  <path d="M488.13 466.46L524.6 457.86C533.55 455.74 539.48 447.86 538.1 439.86L499.83 219.8C498.34 211.23 489 205.94 479.35 208.21L419.89 222.21C410.33 224.47 404.34 233.21 406.7 241.56L468 456.25C470.21 464.09 479.1 468.59 488.13 466.46Z" fill="#F7ABD1"></path>
  <path d="M519.79 558.18C544.952 558.18 565.35 537.782 565.35 512.62C565.35 487.458 544.952 467.06 519.79 467.06C494.628 467.06 474.23 487.458 474.23 512.62C474.23 537.782 494.628 558.18 519.79 558.18Z" fill="#F7ABD1"></path>
  <path d="M482.48 504.49L483.75 606.38C484.019 607.532 483.821 608.743 483.2 609.75L479.51 615.75C479.046 616.501 478.816 617.373 478.847 618.255C478.878 619.138 479.17 619.991 479.686 620.707C480.201 621.424 480.917 621.972 481.744 622.282C482.57 622.592 483.47 622.651 484.33 622.45L487.33 621.74L504.47 617.69L512.15 615.88C513.301 615.607 514.298 614.888 514.92 613.881C515.542 612.875 515.74 611.662 515.47 610.51L511.61 497.64C511.475 497.069 511.228 496.53 510.885 496.054C510.541 495.578 510.107 495.174 509.608 494.866C509.108 494.557 508.553 494.35 507.973 494.257C507.393 494.163 506.801 494.185 506.23 494.32L485.77 499.15C484.629 499.428 483.644 500.144 483.028 501.144C482.412 502.144 482.215 503.346 482.48 504.49Z" fill="#F7ABD1"></path>
  <path d="M546.33 485.35L592.51 580.72C592.785 581.871 593.504 582.867 594.51 583.49L600.51 587.18C601.261 587.645 601.858 588.322 602.224 589.126C602.591 589.929 602.711 590.824 602.57 591.696C602.429 592.568 602.032 593.378 601.431 594.025C600.829 594.672 600.049 595.126 599.19 595.33L596.19 596.05L579.05 600.05L571.38 601.86C570.809 601.995 570.216 602.017 569.637 601.923C569.057 601.829 568.502 601.623 568.002 601.314C567.503 601.006 567.069 600.602 566.725 600.126C566.382 599.65 566.135 599.111 566 598.54L517.5 492.83C517.218 492.202 517.088 491.517 517.12 490.83C517.193 489.885 517.564 488.988 518.181 488.269C518.798 487.55 519.628 487.046 520.55 486.83L541 482C542.151 481.74 543.358 481.946 544.357 482.574C545.356 483.202 546.065 484.2 546.33 485.35Z" fill="#F7ABD1"></path>
  <path d="M505.59 323.8C517.326 323.8 526.84 314.286 526.84 302.55C526.84 290.814 517.326 281.3 505.59 281.3C493.854 281.3 484.34 290.814 484.34 302.55C484.34 314.286 493.854 323.8 505.59 323.8Z" fill="#5AD4FC"></path>
  <path d="M438.67 342.95C450.406 342.95 459.92 333.436 459.92 321.7C459.92 309.964 450.406 300.45 438.67 300.45C426.934 300.45 417.42 309.964 417.42 321.7C417.42 333.436 426.934 342.95 438.67 342.95Z" fill="#5AD4FC"></path>
  <path d="M485.58 298.48C487.783 298.48 489.57 296.694 489.57 294.49C489.57 292.286 487.783 290.5 485.58 290.5C483.376 290.5 481.59 292.286 481.59 294.49C481.59 296.694 483.376 298.48 485.58 298.48Z" fill="#261C0E"></path>
  <path d="M470.87 301.21C469.298 301.926 467.52 302.048 465.865 301.553C464.211 301.059 462.791 299.981 461.87 298.52" stroke="#261C0E" stroke-width="3.01" stroke-linecap="round" stroke-linejoin="round"></path>
  <path d="M442.65 298.63L452.93 299.73L445.68 306.85" stroke="#261C0E" stroke-width="3.01" stroke-linecap="round" stroke-linejoin="round"></path>
  <path d="M368.34 250.7C368.792 250.681 369.235 250.567 369.641 250.366C370.046 250.165 370.405 249.88 370.694 249.531C370.982 249.182 371.194 248.777 371.316 248.341C371.438 247.905 371.466 247.448 371.4 247C369.93 235.86 359.09 198.22 341.7 198.66C319.98 199.22 333.31 221.52 333.31 221.52C333.31 221.52 319.31 217.44 314.82 227.88C309.78 239.51 330.06 255.38 368.34 250.7Z" fill="#FF4885"></path>
  <path d="M504.1 315.08C504.1 315.08 561.48 284 570.81 264.42C570.81 264.42 570.1 258.47 572.47 256.73C574.84 254.99 576.69 261.12 576.69 261.12C576.69 261.12 584.42 253.44 585.77 255.29C587.12 257.14 582.5 264.36 582.5 264.36C582.5 264.36 592.63 260.79 593.26 262.75C593.89 264.71 585.53 270.43 585.53 270.43C585.53 270.43 596.17 271.14 595.71 274.11C595.25 277.08 583.91 277.89 583.91 277.89C583.91 277.89 591.58 281.18 591.23 283.46C590.88 285.74 579.47 283.98 579.47 283.98C579.47 283.98 551.62 314.49 509.76 337.45" stroke="#261C0E" stroke-width="3.43" stroke-linecap="round" stroke-linejoin="round"></path>
  <path d="M447.88 329.72C447.88 329.72 387.79 304.29 376.61 285.72C376.61 285.72 376.75 279.72 374.23 278.23C371.71 276.74 370.44 283.01 370.44 283.01C370.44 283.01 362.01 276.1 360.84 278.07C359.67 280.04 364.97 286.78 364.97 286.78C364.97 286.78 354.54 284.2 354.1 286.22C353.66 288.24 362.54 293.12 362.54 293.12C362.54 293.12 352.02 294.85 352.76 297.76C353.5 300.67 364.87 300.39 364.87 300.39C364.87 300.39 357.55 304.39 358.12 306.64C358.69 308.89 369.88 306.03 369.88 306.03C369.88 306.03 400.52 333.72 444.4 352.55" stroke="#261C0E" stroke-width="3.43" stroke-linecap="round" stroke-linejoin="round"></path>
  <path d="M965.76 278.31C963.942 278.485 962.227 279.231 960.86 280.441C959.493 281.652 958.545 283.264 958.151 285.047C957.757 286.829 957.938 288.691 958.668 290.365C959.398 292.038 960.639 293.437 962.214 294.362C963.788 295.286 965.615 295.687 967.432 295.509C969.249 295.33 970.963 294.581 972.328 293.368C973.692 292.155 974.637 290.541 975.028 288.757C975.418 286.973 975.233 285.112 974.5 283.44C973.768 281.774 972.529 280.382 970.96 279.461C969.391 278.54 967.571 278.137 965.76 278.31Z" fill="#0098EE"></path>
  <path d="M1154.24 113.77L1154.1 113.22C1152.88 108.515 1149.84 104.489 1145.64 102.026C1141.45 99.5641 1136.45 98.8676 1131.75 100.09L1125.55 101.7L1095.4 109.54L1054.76 120.1C1052.22 120.76 1049.52 120.384 1047.26 119.054C1044.99 117.725 1043.35 115.551 1042.69 113.01L1042.35 111.69C1037.99 94.94 1021.69 83.69 1004.62 86.55C1000.07 87.3008 995.719 88.9925 991.856 91.5171C987.992 94.0417 984.698 97.3438 982.182 101.213C979.666 105.082 977.984 109.433 977.243 113.988C976.502 118.544 976.719 123.203 977.88 127.67L980.88 139.29L986.21 159.79L1006.75 238.79C1002.19 240.184 998.193 242.989 995.331 246.801C992.468 250.612 990.889 255.234 990.82 260L990.59 260.05C988.339 260.628 986.264 261.745 984.543 263.306C982.821 264.867 981.507 266.824 980.713 269.007C979.918 271.191 979.669 273.535 979.985 275.837C980.301 278.139 981.174 280.329 982.528 282.217C983.882 284.106 985.675 285.635 987.754 286.674C989.832 287.713 992.132 288.229 994.455 288.178C996.778 288.127 999.054 287.511 1001.08 286.382C1003.12 285.253 1004.84 283.646 1006.11 281.7C1009.98 283.005 1014.12 283.237 1018.11 282.37L1132.61 252.62L1162.76 244.78L1168.96 243.17C1171.29 242.566 1173.48 241.508 1175.4 240.058C1177.32 238.609 1178.93 236.795 1180.15 234.72C1181.37 232.645 1182.17 230.351 1182.5 227.968C1182.84 225.584 1182.7 223.159 1182.09 220.83L1181.94 220.28C1181.15 217.227 1179.58 214.429 1177.39 212.16C1175.2 209.891 1172.46 208.227 1169.44 207.33C1168.96 207.192 1168.52 206.929 1168.17 206.569C1167.82 206.209 1167.56 205.764 1167.44 205.277C1167.31 204.79 1167.31 204.279 1167.45 203.794C1167.58 203.308 1167.83 202.866 1168.19 202.51C1170.39 200.255 1171.98 197.469 1172.79 194.422C1173.6 191.375 1173.6 188.171 1172.81 185.12L1172.66 184.57C1171.87 181.517 1170.3 178.719 1168.11 176.45C1165.92 174.181 1163.18 172.517 1160.16 171.62C1159.68 171.483 1159.24 171.222 1158.89 170.863C1158.53 170.504 1158.28 170.059 1158.16 169.573C1158.03 169.087 1158.03 168.576 1158.17 168.091C1158.3 167.607 1158.55 167.165 1158.91 166.81C1161.11 164.553 1162.7 161.765 1163.5 158.717C1164.31 155.668 1164.32 152.463 1163.53 149.41L1163.39 148.86C1162.58 145.822 1161.01 143.042 1158.81 140.79C1156.62 138.537 1153.89 136.888 1150.87 136C1150.39 135.862 1149.95 135.599 1149.6 135.239C1149.25 134.879 1148.99 134.434 1148.87 133.947C1148.74 133.46 1148.74 132.949 1148.88 132.464C1149.01 131.978 1149.26 131.536 1149.62 131.18C1151.82 128.922 1153.41 126.132 1154.22 123.082C1155.03 120.032 1155.03 116.824 1154.24 113.77Z" fill="#0098EE"></path>
  <path d="M987.68 168.64C998.207 168.64 1006.74 160.107 1006.74 149.58C1006.74 139.053 998.207 130.52 987.68 130.52C977.154 130.52 968.62 139.053 968.62 149.58C968.62 160.107 977.154 168.64 987.68 168.64Z" fill="#FFE552"></path>
  <path d="M1043.86 148.68C1054.39 148.68 1062.92 140.147 1062.92 129.62C1062.92 119.093 1054.39 110.56 1043.86 110.56C1033.33 110.56 1024.8 119.093 1024.8 129.62C1024.8 140.147 1033.33 148.68 1043.86 148.68Z" fill="#FFE552"></path>
  <path d="M994.83 134.07C997.056 134.07 998.86 132.266 998.86 130.04C998.86 127.814 997.056 126.01 994.83 126.01C992.604 126.01 990.8 127.814 990.8 130.04C990.8 132.266 992.604 134.07 994.83 134.07Z" fill="#261C0E"></path>
  <path d="M1027.6 122.06C1029.83 122.06 1031.63 120.256 1031.63 118.03C1031.63 115.804 1029.83 114 1027.6 114C1025.37 114 1023.57 115.804 1023.57 118.03C1023.57 120.256 1025.37 122.06 1027.6 122.06Z" fill="#261C0E"></path>
  <path d="M1010.58 128.8C1012.3 128.541 1013.88 127.666 1015 126.336C1016.13 125.006 1016.74 123.313 1016.71 121.57" stroke="#261C0E" stroke-width="3.04" stroke-linecap="round" stroke-linejoin="round"></path>
  <path d="M1017.36 188.39C1017.36 188.39 988.36 188.07 960.81 169.19C960.81 169.19 954.9 161.68 953.45 163.6C952 165.52 953.45 169.6 953.45 169.6C953.45 169.6 946.24 165.14 944.22 167.13C942.2 169.12 946 173.8 946 173.8C946 173.8 939.17 172.16 939.84 174.93C940.418 176.816 941.448 178.532 942.84 179.93C942.84 179.93 937.69 180.07 936.31 182.55C934.93 185.03 968.71 215.96 1019.23 214.2" stroke="#261C0E" stroke-width="3.16" stroke-linecap="round" stroke-linejoin="round"></path>
  <path d="M1098.38 153.4C1098.38 153.4 1069.38 153.08 1041.83 134.2C1041.83 134.2 1035.93 126.69 1034.47 128.61C1033.01 130.53 1034.47 134.61 1034.47 134.61C1034.47 134.61 1027.26 130.15 1025.24 132.15C1023.22 134.15 1027.01 138.79 1027.01 138.79C1027.01 138.79 1020.19 137.14 1020.85 139.92C1021.43 141.804 1022.46 143.52 1023.85 144.92C1023.85 144.92 1018.71 145.05 1017.33 147.53C1015.95 150.01 1049.73 180.94 1100.25 179.18" stroke="#261C0E" stroke-width="3.16" stroke-linecap="round" stroke-linejoin="round"></path>
  <path d="M699.87 674.07C807.03 674.07 893.9 587.2 893.9 480.04C893.9 372.88 807.03 286.01 699.87 286.01C592.71 286.01 505.84 372.88 505.84 480.04C505.84 587.2 592.71 674.07 699.87 674.07Z" fill="#5AD4FD"></path>
  <path d="M594.6 517.22V694C594.6 694.615 594.479 695.223 594.244 695.791C594.009 696.359 593.664 696.875 593.23 697.31L588.03 702.51C587.367 703.162 586.913 703.997 586.728 704.909C586.542 705.82 586.633 706.766 586.989 707.626C587.344 708.485 587.948 709.219 588.723 709.733C589.499 710.246 590.41 710.517 591.34 710.51H650.8C651.414 710.511 652.022 710.392 652.59 710.157C653.158 709.923 653.674 709.58 654.108 709.146C654.543 708.712 654.888 708.197 655.123 707.629C655.359 707.062 655.48 706.454 655.48 705.84V517.22C655.481 516.605 655.361 515.996 655.126 515.428C654.892 514.859 654.547 514.343 654.112 513.908C653.677 513.473 653.161 513.128 652.592 512.894C652.024 512.659 651.415 512.539 650.8 512.54H599.28C598.665 512.539 598.056 512.659 597.487 512.894C596.919 513.128 596.402 513.473 595.968 513.908C595.533 514.343 595.188 514.859 594.953 515.428C594.719 515.996 594.598 516.605 594.6 517.22Z" fill="#5AD4FD"></path>
  <path d="M804 517.22V694C804 694.615 804.121 695.223 804.356 695.791C804.591 696.359 804.935 696.875 805.37 697.31L810.57 702.51C811.228 703.164 811.677 703.999 811.86 704.909C812.042 705.818 811.951 706.762 811.596 707.619C811.241 708.477 810.639 709.209 809.867 709.724C809.095 710.239 808.188 710.512 807.26 710.51H747.76C746.521 710.51 745.333 710.018 744.458 709.142C743.582 708.266 743.09 707.079 743.09 705.84V517.22C743.089 516.606 743.208 515.998 743.442 515.43C743.677 514.862 744.02 514.346 744.454 513.911C744.888 513.477 745.403 513.132 745.97 512.896C746.538 512.661 747.146 512.54 747.76 512.54H799.29C799.907 512.536 800.519 512.654 801.09 512.888C801.661 513.121 802.181 513.465 802.618 513.9C803.056 514.335 803.404 514.852 803.641 515.422C803.878 515.992 804 516.603 804 517.22Z" fill="#5AD4FD"></path>
  <path d="M601.33 491.01C628.928 491.01 651.3 468.638 651.3 441.04C651.3 413.442 628.928 391.07 601.33 391.07C573.732 391.07 551.36 413.442 551.36 441.04C551.36 468.638 573.732 491.01 601.33 491.01Z" fill="#F8ABD0"></path>
  <path d="M803.97 489.36C831.568 489.36 853.94 466.988 853.94 439.39C853.94 411.792 831.568 389.42 803.97 389.42C776.372 389.42 754 411.792 754 439.39C754 466.988 776.372 489.36 803.97 489.36Z" fill="#F8ABD0"></path>
  <path d="M692.35 416.52C692.35 416.52 693.58 430.37 710.2 429.75C726.82 429.13 723.44 414.05 723.44 414.05" stroke="#261C0E" stroke-width="6.57" stroke-linecap="round" stroke-linejoin="round"></path>
  <path d="M778.07 392.61L758.49 401L778.07 406.6" stroke="#261C0E" stroke-width="6.57" stroke-linecap="round" stroke-linejoin="round"></path>
  <path d="M633.81 409.73L654.59 405.03L636.35 395.97" stroke="#261C0E" stroke-width="6.57" stroke-linecap="round" stroke-linejoin="round"></path>
  <path d="M623.33 479.57C623.33 479.57 649.88 519 700.5 539.7C700.5 539.7 716.09 541.03 714.78 544.76C713.47 548.49 706.55 550.23 706.55 550.23C706.55 550.23 719.15 556.08 718.23 560.64C717.31 565.2 707.55 564.19 707.55 564.19C707.55 564.19 715.94 572.05 711.55 573.64C707.16 575.23 701.96 574.08 701.96 574.08C701.96 574.08 706.41 581.24 704.25 585.37C702.09 589.5 629.35 571.08 586.32 500.32" stroke="#261C0E" stroke-width="3.43" stroke-linecap="round" stroke-linejoin="round"></path>
  <path d="M840.62 437.1C840.62 437.1 884.62 419.2 915.3 373.9C915.3 373.9 919.8 358.9 923.17 360.97C926.54 363.04 926.84 370.13 926.84 370.13C926.84 370.13 935.15 359.01 939.43 360.84C943.71 362.67 940.71 372 940.71 372C940.71 372 950.13 365.4 950.77 370C951.41 374.6 949.25 379.47 949.25 379.47C949.25 379.47 957.17 376.59 960.76 379.55C964.35 382.51 931.42 449.92 853.35 477.55" stroke="#261C0E" stroke-width="3.43" stroke-linecap="round" stroke-linejoin="round"></path>
  <path d="M392.18 344.48L268.87 432C263.28 424.41 252.01 420.67 240.42 423.41C225.78 426.86 216.19 439.32 219 451.24L235.8 522.53C238.61 534.45 252.8 541.31 267.4 537.86C276.88 535.63 284.23 529.62 287.48 522.42L436.73 533.42C442.94 534.16 448.96 529.53 447.86 524.86L406 347.16C404.87 342.49 397.42 341 392.18 344.48Z" fill="#FFBE2A"></path>
  <path d="M389.22 500.79L429.79 672.85C430.075 674.055 430.827 675.098 431.88 675.75L438.13 679.62C438.915 680.107 439.539 680.816 439.922 681.656C440.306 682.497 440.432 683.433 440.284 684.345C440.136 685.257 439.722 686.106 439.093 686.783C438.464 687.46 437.649 687.936 436.75 688.15L433.57 688.9L415.63 693.13L407.63 695.03C407.032 695.171 406.411 695.193 405.805 695.095C405.198 694.996 404.617 694.779 404.094 694.456C403.571 694.133 403.117 693.71 402.758 693.211C402.399 692.713 402.141 692.148 402 691.55L358.68 508C358.397 506.792 358.605 505.522 359.257 504.466C359.909 503.411 360.953 502.657 362.16 502.37L383.59 497.32C384.796 497.035 386.067 497.24 387.123 497.89C388.178 498.541 388.933 499.584 389.22 500.79Z" fill="#FFBE2A"></path>
  <path d="M308.57 512.89V689.66C308.574 690.911 308.081 692.112 307.2 693L302 698.2C301.342 698.854 300.893 699.689 300.71 700.599C300.528 701.508 300.619 702.452 300.974 703.309C301.329 704.167 301.931 704.899 302.703 705.414C303.475 705.929 304.382 706.202 305.31 706.2H335.26C336.501 706.2 337.692 705.707 338.569 704.829C339.447 703.952 339.94 702.761 339.94 701.52V512.89C339.94 512.275 339.819 511.667 339.584 511.099C339.349 510.531 339.004 510.015 338.569 509.581C338.135 509.146 337.619 508.801 337.051 508.566C336.483 508.331 335.875 508.21 335.26 508.21H313.26C312.645 508.209 312.035 508.329 311.466 508.563C310.897 508.798 310.38 509.142 309.944 509.577C309.509 510.012 309.163 510.528 308.927 511.097C308.692 511.665 308.57 512.275 308.57 512.89Z" fill="#FFBE2A"></path>
  <path d="M288.65 503.53C305.08 503.53 318.4 490.211 318.4 473.78C318.4 457.35 305.08 444.03 288.65 444.03C272.219 444.03 258.9 457.35 258.9 473.78C258.9 490.211 272.219 503.53 288.65 503.53Z" fill="#FFE552"></path>
  <path d="M377.32 481.61C393.75 481.61 407.07 468.29 407.07 451.86C407.07 435.43 393.75 422.11 377.32 422.11C360.889 422.11 347.57 435.43 347.57 451.86C347.57 468.29 360.889 481.61 377.32 481.61Z" fill="#FFE552"></path>
  <path d="M298 453.83C301.413 453.83 304.18 451.063 304.18 447.65C304.18 444.237 301.413 441.47 298 441.47C294.587 441.47 291.82 444.237 291.82 447.65C291.82 451.063 294.587 453.83 298 453.83Z" fill="#261C0E"></path>
  <path d="M352 441.1C355.413 441.1 358.18 438.333 358.18 434.92C358.18 431.507 355.413 428.74 352 428.74C348.587 428.74 345.82 431.507 345.82 434.92C345.82 438.333 348.587 441.1 352 441.1Z" fill="#261C0E"></path>
  <path d="M316.55 446.76L326.04 454.2L332.9 442.26" stroke="#261C0E" stroke-width="4.66" stroke-linecap="round" stroke-linejoin="round"></path>
  <path d="M263 515.38C263 515.38 236.5 575 217.7 585.84C217.7 585.84 211.7 585.59 210.17 588.09C208.64 590.59 214.88 591.96 214.88 591.96C214.88 591.96 207.82 600.26 209.77 601.47C211.72 602.68 218.55 597.47 218.55 597.47C218.55 597.47 215.78 607.85 217.79 608.32C219.8 608.79 224.85 600.02 224.85 600.02C224.85 600.02 226.39 610.56 229.31 609.88C232.23 609.2 232.16 597.82 232.16 597.82C232.16 597.82 236.04 605.21 238.28 604.68C240.52 604.15 237.88 592.91 237.88 592.91C237.88 592.91 266.12 562.77 285.74 519.24" stroke="#261C0E" stroke-width="3.43" stroke-linecap="round" stroke-linejoin="round"></path>
  <path d="M388.07 467.7C388.07 467.7 440.95 429.47 447.68 408.85C447.68 408.85 446.2 403.04 448.33 401.01C450.46 398.98 453.09 404.82 453.09 404.82C453.09 404.82 459.76 396.2 461.34 397.82C462.92 399.44 459.27 407.24 459.27 407.24C459.27 407.24 468.85 402.39 469.73 404.24C470.61 406.09 463.06 412.85 463.06 412.85C463.06 412.85 473.7 412.18 473.63 415.18C473.56 418.18 462.41 420.46 462.41 420.46C462.41 420.46 470.41 422.73 470.41 425.04C470.41 427.35 458.81 427.04 458.81 427.04C458.81 427.04 435.14 460.88 396.58 489.04" stroke="#261C0E" stroke-width="3.43" stroke-linecap="round" stroke-linejoin="round"></path>
  <path d="M1177.13 443L1127 412.23C1125.81 411.502 1124.49 411.016 1123.11 410.799C1121.74 410.581 1120.33 410.637 1118.98 410.963C1117.62 411.289 1116.35 411.879 1115.22 412.698C1114.09 413.518 1113.14 414.551 1112.41 415.74L1030.48 549.46C1029.01 551.859 1026.65 553.575 1023.91 554.231C1021.17 554.888 1018.29 554.43 1015.89 552.96L983.62 533.19C981.221 531.72 978.336 531.262 975.6 531.919C972.864 532.575 970.501 534.291 969.03 536.69L938.29 586.87C936.822 589.27 936.366 592.154 937.023 594.889C937.679 597.624 939.393 599.987 941.79 601.46L983.11 626.77L1042.33 663.05C1044.73 664.52 1047.61 664.978 1050.35 664.321C1053.09 663.665 1055.45 661.949 1056.92 659.55L1093.2 600.33L1180.68 457.56C1182.14 455.158 1182.58 452.276 1181.92 449.546C1181.25 446.817 1179.53 444.462 1177.13 443Z" fill="#FFE553"></path>
  <path d="M1077.92 565.1L1106.35 692.91C1106.4 694.149 1106.94 695.318 1107.85 696.16L1113.26 701.16C1113.94 701.789 1114.42 702.605 1114.63 703.505C1114.85 704.405 1114.79 705.349 1114.47 706.217C1114.15 707.085 1113.58 707.838 1112.83 708.382C1112.08 708.925 1111.18 709.234 1110.26 709.27L1107 709.4L1088.58 710.15L1080.33 710.49C1079.09 710.541 1077.88 710.098 1076.97 709.258C1076.05 708.418 1075.51 707.25 1075.46 706.01L1046.55 566.39C1046.5 565.15 1046.94 563.941 1047.78 563.027C1048.62 562.114 1049.79 561.572 1051.03 561.52L1073.03 560.63C1073.64 560.602 1074.26 560.695 1074.84 560.905C1075.42 561.114 1075.95 561.436 1076.4 561.851C1076.86 562.266 1077.22 562.767 1077.48 563.324C1077.74 563.882 1077.89 564.485 1077.92 565.1Z" fill="#FFE553"></path>
  <path d="M1002.74 622.7L963.43 678.15C963.167 678.705 962.796 679.201 962.34 679.612C961.883 680.022 961.35 680.337 960.77 680.54L953.83 683C952.959 683.309 952.199 683.869 951.645 684.61C951.092 685.351 950.771 686.238 950.721 687.162C950.672 688.085 950.898 689.002 951.369 689.797C951.84 690.592 952.537 691.23 953.37 691.63L956.31 693.04L972.94 701.04L980.4 704.6C981.519 705.135 982.805 705.204 983.976 704.792C985.146 704.379 986.104 703.519 986.64 702.4L1030.64 636.88C1031.06 636.307 1031.34 635.642 1031.46 634.94C1031.61 633.953 1031.43 632.945 1030.96 632.065C1030.49 631.184 1029.75 630.478 1028.85 630.05L1009 620.49C1008.44 620.222 1007.84 620.067 1007.22 620.033C1006.61 619.999 1005.99 620.088 1005.41 620.293C1004.83 620.498 1004.29 620.817 1003.83 621.23C1003.38 621.643 1003 622.143 1002.74 622.7Z" fill="#FFE553"></path>
  <path d="M1125.5 540.7C1125.5 540.7 1136.72 562.85 1131.61 581.56C1126.5 600.27 1093.68 592.4 1093.68 592.4C1093.68 592.4 1102.55 605.94 1099.4 607.12C1096.25 608.3 1092.23 602.12 1092.23 602.12C1092.23 602.12 1093.83 611.27 1090.05 610.05C1086.27 608.83 1084.77 599.05 1084.77 599.05C1084.77 599.05 1081.84 609.84 1079.17 607.79C1076.5 605.74 1079.52 596.62 1079.52 596.62C1079.52 596.62 1071.52 599.7 1068.72 595.99C1065.92 592.28 1079.85 587.75 1079.85 587.75C1079.85 587.75 1071.46 586.5 1071.31 580.86C1071.16 575.22 1083.42 579.37 1083.42 579.37C1083.42 579.37 1127.42 585.29 1096.83 547.04" stroke="#261C0E" stroke-width="3.43" stroke-linecap="round" stroke-linejoin="round"></path>
  <path d="M1061.36 524.74C1061.36 524.74 1046.02 461.32 1054.36 441.27C1054.36 441.27 1059.26 437.82 1058.96 434.9C1058.66 431.98 1052.87 434.7 1052.87 434.7C1052.87 434.7 1053.39 423.81 1051.12 424.05C1048.85 424.29 1046.57 432.55 1046.57 432.55C1046.57 432.55 1042.44 422.63 1040.57 423.48C1038.7 424.33 1040.04 434.37 1040.04 434.37C1040.04 434.37 1032.39 426.95 1030.49 429.27C1028.59 431.59 1035.59 440.57 1035.59 440.57C1035.59 440.57 1028.01 437.08 1026.59 438.87C1025.17 440.66 1034 448 1034 448C1034 448 1030 489.1 1041 535.57" stroke="#261C0E" stroke-width="3.43" stroke-linecap="round" stroke-linejoin="round"></path>
  <path d="M1080.73 514.3C1093.02 514.3 1102.99 504.334 1102.99 492.04C1102.99 479.746 1093.02 469.78 1080.73 469.78C1068.44 469.78 1058.47 479.746 1058.47 492.04C1058.47 504.334 1068.44 514.3 1080.73 514.3Z" fill="#5AD4FC"></path>
  <path d="M1153.56 511.39C1165.85 511.39 1175.82 501.424 1175.82 489.13C1175.82 476.836 1165.85 466.87 1153.56 466.87C1141.27 466.87 1131.3 476.836 1131.3 489.13C1131.3 501.424 1141.27 511.39 1153.56 511.39Z" fill="#5AD4FC"></path>
  <path d="M1097.98 481.64C1100.29 481.64 1102.16 479.769 1102.16 477.46C1102.16 475.151 1100.29 473.28 1097.98 473.28C1095.67 473.28 1093.8 475.151 1093.8 477.46C1093.8 479.769 1095.67 481.64 1097.98 481.64Z" fill="#261C0E"></path>
  <path d="M1137.52 478.2C1139.83 478.2 1141.7 476.329 1141.7 474.02C1141.7 471.711 1139.83 469.84 1137.52 469.84C1135.21 469.84 1133.34 471.711 1133.34 474.02C1133.34 476.329 1135.21 478.2 1137.52 478.2Z" fill="#261C0E"></path>
  <path d="M1114.82 479.31C1116.62 479.509 1118.43 479.05 1119.91 478.016C1121.4 476.983 1122.46 475.446 1122.9 473.69" stroke="#261C0E" stroke-width="3.15" stroke-linecap="round" stroke-linejoin="round"></path>
  <path d="M931 601.17L897.08 666.61C895.63 669.41 890.97 670.19 888.7 668.01L835.35 617.14L778.59 563C778.084 562.538 777.748 561.919 777.635 561.242C777.523 560.566 777.641 559.871 777.97 559.27L814.05 489.66L848 424.23C849.45 421.43 854.1 420.66 856.38 422.83L909.72 473.71L966.46 527.83C966.975 528.284 967.319 528.902 967.433 529.579C967.548 530.256 967.427 530.952 967.09 531.55L931 601.17Z" fill="#FF6EC8"></path>
  <path d="M918.55 584.94L952.14 678.8C952.215 679.261 952.381 679.703 952.628 680.099C952.876 680.496 953.199 680.839 953.58 681.11L958.13 684.36C958.702 684.77 959.14 685.341 959.389 686C959.638 686.659 959.686 687.377 959.528 688.063C959.37 688.749 959.012 689.373 958.5 689.857C957.988 690.34 957.344 690.661 956.65 690.78L954.2 691.18L940.36 693.5L934.16 694.5C933.228 694.653 932.273 694.431 931.505 693.882C930.736 693.333 930.217 692.501 930.06 691.57L895 588.87C894.847 587.938 895.069 586.983 895.618 586.215C896.167 585.446 896.999 584.927 897.93 584.77L914.45 582C915.383 581.847 916.34 582.07 917.108 582.622C917.877 583.173 918.396 584.007 918.55 584.94Z" fill="#FF6EC8"></path>
  <path d="M839.75 588.81L839.29 697.64C839.442 698.571 839.219 699.524 838.67 700.29L835.42 704.85C835.01 705.423 834.78 706.106 834.758 706.81C834.736 707.515 834.924 708.21 835.298 708.808C835.672 709.405 836.215 709.878 836.858 710.167C837.501 710.456 838.215 710.548 838.91 710.43L841.35 710.02L855.2 707.71L861.4 706.71C862.331 706.553 863.163 706.034 863.712 705.265C864.261 704.497 864.483 703.542 864.33 702.61L863.33 585.46C863.342 584.918 863.229 584.381 863 583.89C862.656 583.213 862.105 582.663 861.427 582.319C860.749 581.976 859.98 581.857 859.23 581.98L842.7 584.74C841.771 584.892 840.94 585.406 840.387 586.168C839.835 586.93 839.606 587.88 839.75 588.81Z" fill="#FF6EC8"></path>
  <path d="M843.29 602.62C854.899 602.62 864.31 593.209 864.31 581.6C864.31 569.991 854.899 560.58 843.29 560.58C831.681 560.58 822.27 569.991 822.27 581.6C822.27 593.209 831.681 602.62 843.29 602.62Z" fill="#F8ABD0"></path>
  <path d="M911.65 594.49C923.259 594.49 932.67 585.079 932.67 573.47C932.67 561.861 923.259 552.45 911.65 552.45C900.041 552.45 890.63 561.861 890.63 573.47C890.63 585.079 900.041 594.49 911.65 594.49Z" fill="#F8ABD0"></path>
  <path d="M858.46 570.55C860.641 570.55 862.41 568.782 862.41 566.6C862.41 564.418 860.641 562.65 858.46 562.65C856.278 562.65 854.51 564.418 854.51 566.6C854.51 568.782 856.278 570.55 858.46 570.55Z" fill="#261C0E"></path>
  <path d="M895.42 564.38C897.601 564.38 899.37 562.612 899.37 560.43C899.37 558.248 897.601 556.48 895.42 556.48C893.238 556.48 891.47 558.248 891.47 560.43C891.47 562.612 893.238 564.38 895.42 564.38Z" fill="#261C0E"></path>
  <path d="M874.45 567.09C876.16 567.155 877.835 566.592 879.158 565.507C880.481 564.422 881.36 562.89 881.63 561.2" stroke="#261C0E" stroke-width="2.98" stroke-linecap="round" stroke-linejoin="round"></path>
  <path d="M830.24 571.67C814.93 564.937 801.72 554.2 792 540.59C792 540.59 789.59 533.09 787.91 534.15C786.23 535.21 786.15 538.8 786.15 538.8C786.15 538.8 781.86 533.29 779.72 534.25C777.58 535.21 779.19 539.89 779.19 539.89C779.19 539.89 774.38 536.66 774.1 539C773.995 540.633 774.291 542.267 774.96 543.76C774.96 543.76 770.96 542.38 769.17 543.91C767.38 545.44 784.64 579.05 824.17 592.18" stroke="#261C0E" stroke-width="2.61" stroke-linecap="round" stroke-linejoin="round"></path>
  <path d="M916.9 555.19C920.793 538.946 920.233 521.953 915.28 506C915.28 506 910.76 499.54 912.63 498.85C914.5 498.16 917.39 500.26 917.39 500.26C917.39 500.26 915.6 493.51 917.66 492.39C919.72 491.27 922.48 495.39 922.48 495.39C922.48 495.39 922.81 489.61 924.84 490.8C926.201 491.703 927.32 492.925 928.1 494.36C928.1 494.36 929.44 490.36 931.73 489.84C934.02 489.32 950.35 523.41 936.87 562.84" stroke="#261C0E" stroke-width="2.61" stroke-linecap="round" stroke-linejoin="round"></path>
  <path d="M478.04 473.95L527.12 634.5L753.62 612.75L705.41 453.01L478.04 473.95Z" fill="#2961E2"></path>
  <path d="M823 594.12L763.22 599.86L716.46 446.69C716.026 445.265 715.116 444.031 713.882 443.196C712.648 442.36 711.165 441.974 709.68 442.1L482.46 461.41C481.492 461.493 480.554 461.791 479.716 462.283C478.877 462.775 478.16 463.449 477.615 464.254C477.07 465.059 476.713 465.976 476.568 466.938C476.424 467.899 476.496 468.88 476.78 469.81L478 474L705.41 453L753.62 612.74L764.32 611.74L824.1 606C824.942 606.013 825.778 605.848 826.552 605.517C827.326 605.185 828.022 604.694 828.594 604.076C829.166 603.458 829.602 602.727 829.872 601.929C830.143 601.132 830.243 600.286 830.165 599.448C830.088 598.609 829.834 597.796 829.422 597.062C829.009 596.328 828.447 595.688 827.771 595.186C827.095 594.683 826.321 594.329 825.499 594.145C824.677 593.961 823.826 593.953 823 594.12Z" fill="#034799"></path>
  <path d="M617.96 564.75C631.646 564.75 642.74 553.656 642.74 539.97C642.74 526.284 631.646 515.19 617.96 515.19C604.275 515.19 593.18 526.284 593.18 539.97C593.18 553.656 604.275 564.75 617.96 564.75Z" fill="white"></path>
  <path d="M229 399.13C228.38 397.706 227.396 396.47 226.147 395.546C224.898 394.623 223.428 394.044 221.885 393.869C220.341 393.694 218.779 393.928 217.354 394.547C215.93 395.167 214.694 396.151 213.77 397.4L129.77 511.11L45.7702 624.83C44.8605 626.079 44.2936 627.544 44.126 629.08C43.9583 630.616 44.1958 632.17 44.8147 633.585C45.4336 635.001 46.4124 636.23 47.6537 637.15C48.895 638.071 50.3556 638.65 51.8902 638.83L196.11 621.62L332.84 670.62C334.384 670.802 335.949 670.574 337.377 669.959C338.805 669.344 340.046 668.364 340.974 667.117C341.903 665.87 342.487 664.4 342.667 662.856C342.847 661.312 342.617 659.747 342 658.32L285.52 528.72L229 399.13Z" fill="#BFC846"></path>
  <path d="M177.18 515.24L92.1099 671.73C91.6531 672.883 90.7576 673.807 89.6199 674.3L82.8799 677.23C82.0299 677.598 81.3083 678.211 80.8066 678.99C80.3049 679.769 80.0457 680.679 80.0617 681.605C80.0778 682.531 80.3684 683.432 80.8968 684.193C81.4252 684.954 82.1676 685.541 83.0299 685.88L86.0299 687.07L130.65 704.64L138.33 707.64C138.902 707.867 139.513 707.978 140.128 707.968C140.743 707.958 141.349 707.826 141.913 707.581C142.477 707.336 142.987 706.981 143.414 706.539C143.841 706.096 144.176 705.573 144.4 705L213.48 529.52C213.706 528.949 213.818 528.339 213.807 527.724C213.797 527.11 213.666 526.504 213.42 525.941C213.175 525.378 212.821 524.869 212.378 524.443C211.935 524.017 211.412 523.683 210.84 523.46L183.24 512.6C182.669 512.373 182.059 512.262 181.444 512.272C180.83 512.283 180.224 512.414 179.661 512.66C179.098 512.905 178.588 513.259 178.163 513.702C177.737 514.145 177.403 514.668 177.18 515.24Z" fill="#BFC846"></path>
  <path d="M250.35 517.22L272.18 694C272.18 694.615 272.301 695.223 272.536 695.791C272.771 696.359 273.115 696.875 273.55 697.31L278.75 702.51C279.408 703.164 279.857 703.999 280.04 704.909C280.222 705.818 280.131 706.762 279.776 707.619C279.421 708.477 278.819 709.209 278.047 709.724C277.275 710.239 276.368 710.512 275.44 710.51H216C214.76 710.51 213.571 710.018 212.694 709.143C211.817 708.267 211.322 707.08 211.32 705.84V517.22C211.32 515.979 211.813 514.788 212.691 513.911C213.568 513.033 214.759 512.54 216 512.54H245.7C246.936 512.548 248.119 513.045 248.99 513.921C249.861 514.798 250.35 515.984 250.35 517.22Z" fill="#BFC846"></path>
  <path d="M258 582.51C274.43 582.51 287.75 569.19 287.75 552.76C287.75 536.33 274.43 523.01 258 523.01C241.57 523.01 228.25 536.33 228.25 552.76C228.25 569.19 241.57 582.51 258 582.51Z" fill="#FFE552"></path>
  <path d="M156.8 570.08C173.23 570.08 186.55 556.76 186.55 540.33C186.55 523.9 173.23 510.58 156.8 510.58C140.369 510.58 127.05 523.9 127.05 540.33C127.05 556.76 140.369 570.08 156.8 570.08Z" fill="#FFE552"></path>
  <path d="M244.79 536.8C247.949 536.8 250.51 534.239 250.51 531.08C250.51 527.921 247.949 525.36 244.79 525.36C241.631 525.36 239.07 527.921 239.07 531.08C239.07 534.239 241.631 536.8 244.79 536.8Z" fill="#261C0E"></path>
  <path d="M180.49 529.53C183.649 529.53 186.21 526.969 186.21 523.81C186.21 520.651 183.649 518.09 180.49 518.09C177.331 518.09 174.77 520.651 174.77 523.81C174.77 526.969 177.331 529.53 180.49 529.53Z" fill="#261C0E"></path>
  <path d="M216.05 532.38C216.05 532.38 207.78 533.38 205.2 524.38" stroke="#261C0E" stroke-width="4.31" stroke-linecap="round" stroke-linejoin="round"></path>
  <path d="M144.06 537.29C144.06 537.29 92.06 497.89 85.79 477.12C85.79 477.12 87.39 471.34 85.31 469.27C83.23 467.2 80.47 472.97 80.47 472.97C80.47 472.97 73.99 464.2 72.38 465.82C70.77 467.44 74.24 475.29 74.24 475.29C74.24 475.29 64.77 470.22 63.85 472.07C62.93 473.92 70.32 480.83 70.32 480.83C70.32 480.83 59.7 479.92 59.71 482.93C59.72 485.94 70.8 488.45 70.8 488.45C70.8 488.45 62.72 490.54 62.72 492.85C62.72 495.16 74.27 495.14 74.27 495.14C74.27 495.14 97.18 529.51 135.08 558.55" stroke="#261C0E" stroke-width="3.43" stroke-linecap="round" stroke-linejoin="round"></path>
  <path d="M284.87 560C284.87 560 330.31 606.83 351.69 610.52C351.69 610.52 357.23 608.22 359.54 610.04C361.85 611.86 356.45 615.29 356.45 615.29C356.45 615.29 365.94 620.66 364.53 622.46C363.12 624.26 354.91 621.76 354.91 621.76C354.91 621.76 361.09 630.55 359.37 631.69C357.65 632.83 349.88 626.32 349.88 626.32C349.88 626.32 352.07 636.75 349.1 637.12C346.13 637.49 342.26 626.78 342.26 626.78C342.26 626.78 341.17 635.05 338.88 635.33C336.59 635.61 335.2 624.15 335.2 624.15C335.2 624.15 298.3 605.59 264.87 571.49" stroke="#261C0E" stroke-width="3.43" stroke-linecap="round" stroke-linejoin="round"></path>
  <path d="M75.4102 221.61V500.43" stroke="#261C0E" stroke-width="3.17" stroke-linecap="round" stroke-linejoin="round"></path>
  <path d="M75.4098 260.7C84.5722 260.7 91.9998 253.272 91.9998 244.11C91.9998 234.948 84.5722 227.52 75.4098 227.52C66.2474 227.52 58.8198 234.948 58.8198 244.11C58.8198 253.272 66.2474 260.7 75.4098 260.7Z" fill="#F6CD33"></path>
  <path d="M133.5 185.6C133.5 153.518 107.495 127.51 75.4151 127.51C43.3356 127.51 17.3301 153.518 17.3301 185.6V185.79C17.3301 217.872 43.3356 243.88 75.4151 243.88C107.495 243.88 133.5 217.872 133.5 185.79V185.6Z" fill="#F6CD33"></path>
  <path d="M539.07 538.21C539.07 538.06 539.07 537.91 539.07 537.76C536.89 509.45 511.87 485.3 477.26 487.97C449.75 490.09 436.65 528.28 432.48 545.16C425.77 529.16 406.97 493.39 379.48 495.51C344.87 498.18 323.85 525.88 326.03 554.2C326.03 554.35 326.03 554.5 326.03 554.65C326.32 560.82 331.33 623.49 441.77 666.37H441.83C544.39 607.06 539.73 544.36 539.07 538.21Z" fill="#FF8A22"></path>
  <path d="M471.59 558.17L504.64 684.87C504.687 685.482 504.854 686.079 505.132 686.627C505.41 687.174 505.793 687.661 506.26 688.06L511.84 692.84C512.543 693.442 513.051 694.239 513.301 695.129C513.551 696.02 513.532 696.965 513.245 697.845C512.958 698.725 512.417 699.5 511.69 700.072C510.963 700.644 510.082 700.988 509.16 701.06L505.91 701.31L487.52 702.73L479.29 703.37C478.056 703.458 476.838 703.054 475.901 702.247C474.964 701.439 474.385 700.293 474.29 699.06L440.31 560.58C440.219 559.347 440.621 558.129 441.427 557.191C442.233 556.254 443.377 555.675 444.61 555.58L466.56 553.88C467.795 553.786 469.017 554.184 469.959 554.988C470.902 555.792 471.488 556.936 471.59 558.17Z" fill="#FF8A22"></path>
  <path d="M417.64 559.83L362.51 691.71C362.233 692.919 361.489 693.969 360.44 694.63L354.2 698.53C353.414 699.02 352.791 699.732 352.41 700.576C352.03 701.421 351.909 702.36 352.063 703.273C352.218 704.186 352.64 705.033 353.277 705.706C353.914 706.378 354.736 706.846 355.64 707.05L358.81 707.78L376.81 711.92L384.86 713.77C386.069 714.048 387.34 713.835 388.392 713.177C389.444 712.518 390.191 711.469 390.47 710.26L448 567.53C448.285 566.879 448.415 566.17 448.38 565.46C448.305 564.465 447.912 563.52 447.261 562.765C446.609 562.009 445.733 561.482 444.76 561.26L423.3 556.32C422.698 556.175 422.073 556.151 421.461 556.249C420.849 556.347 420.263 556.566 419.737 556.892C419.21 557.219 418.754 557.647 418.394 558.151C418.034 558.655 417.778 559.226 417.64 559.83Z" fill="#FF8A22"></path>
  <path d="M390.8 607.48C406.049 607.48 418.41 595.119 418.41 579.87C418.41 564.621 406.049 552.26 390.8 552.26C375.551 552.26 363.19 564.621 363.19 579.87C363.19 595.119 375.551 607.48 390.8 607.48Z" fill="#F8ABD0"></path>
  <path d="M481.18 604.76C496.428 604.76 508.79 592.399 508.79 577.15C508.79 561.901 496.428 549.54 481.18 549.54C465.931 549.54 453.57 561.901 453.57 577.15C453.57 592.399 465.931 604.76 481.18 604.76Z" fill="#F8ABD0"></path>
  <path d="M431.84 562C431.84 562 439.3 563.2 441.93 555.13" stroke="#261C0E" stroke-width="3.91" stroke-linecap="round" stroke-linejoin="round"></path>
  <path d="M465.03 545.6L457.29 553.34L466.79 555.8" stroke="#261C0E" stroke-width="3.91" stroke-linecap="round" stroke-linejoin="round"></path>
  <path d="M405.14 560.49L415.19 556.15L407.27 550.36" stroke="#261C0E" stroke-width="3.91" stroke-linecap="round" stroke-linejoin="round"></path>
  <path d="M496 570.87C496 570.87 524.35 557.29 542.78 526.16C542.78 526.16 545.15 516.09 547.46 517.31C549.77 518.53 550.25 523.21 550.25 523.21C550.25 523.21 555.25 515.54 558.19 516.57C561.13 517.6 559.48 523.91 559.48 523.91C559.48 523.91 565.43 519.17 566.04 522.21C566.354 524.333 566.138 526.501 565.41 528.52C565.41 528.52 570.53 526.3 573.02 528.11C575.51 529.92 556.46 575.74 506.02 597.11" stroke="#261C0E" stroke-width="3.43" stroke-linecap="round" stroke-linejoin="round"></path>
  <path d="M394 605.33C394 605.33 376.19 631.24 375.74 667.41C375.74 667.41 378.74 677.33 376.1 677.41C373.46 677.49 370.74 673.68 370.74 673.68C370.74 673.68 370.2 682.85 367.17 683.39C364.14 683.93 362.39 677.68 362.39 677.68C362.39 677.68 359.59 684.75 357.55 682.43C356.224 680.741 355.331 678.753 354.95 676.64C354.95 676.64 351.62 681.12 348.56 680.79C345.5 680.46 339.16 631.25 372.23 587.59" stroke="#261C0E" stroke-width="3.43" stroke-linecap="round" stroke-linejoin="round"></path>
  <path d="M911.473 350.973L911.465 350.979C907.847 353.638 907.069 358.726 909.728 362.344L926.705 385.447C929.364 389.066 934.453 389.843 938.071 387.184L938.079 387.179C941.697 384.52 942.475 379.431 939.816 375.813L922.839 352.71C920.18 349.092 915.092 348.314 911.473 350.973Z" fill="#8CAE00"></path>
  <path d="M926.88 319.86C926.78 319.69 926.66 319.53 926.55 319.37L926.42 319.19C924.79 316.974 922.348 315.496 919.629 315.08C916.911 314.664 914.138 315.344 911.92 316.97C909.867 318.48 908.441 320.692 907.915 323.186C907.39 325.68 907.801 328.28 909.07 330.49C907.34 328.619 904.982 327.451 902.445 327.209C899.909 326.968 897.372 327.669 895.32 329.18C893.362 330.617 891.971 332.695 891.39 335.053C890.809 337.411 891.074 339.898 892.14 342.08C890.374 340.412 888.078 339.416 885.654 339.267C883.229 339.117 880.828 339.822 878.87 341.26C876.656 342.891 875.18 345.334 874.766 348.053C874.351 350.771 875.033 353.543 876.66 355.76L876.79 355.93C876.91 356.09 877.03 356.25 877.16 356.4L878.16 357.75C880.562 361.019 883.585 363.782 887.055 365.882C890.525 367.983 894.375 369.379 898.385 369.991C902.395 370.603 906.486 370.418 910.425 369.449C914.363 368.479 918.072 366.743 921.34 364.34C924.608 361.939 927.371 358.917 929.471 355.448C931.572 351.979 932.968 348.131 933.581 344.122C934.194 340.113 934.011 336.023 933.043 332.085C932.075 328.147 930.341 324.438 927.94 321.17L926.94 319.81L926.88 319.86Z" fill="#FF6EC8"></path>
  <path d="M634.43 629.55C631.26 637.6 615.17 639.95 607.86 640.77C590.4 642.7 564.54 647.43 561.54 619.77C561.54 619.77 558.26 603.77 568.42 607.68C578.58 611.59 580.92 615.5 580.92 615.5C580.92 615.5 583.26 599.87 588.73 603.77C592.045 606.142 595.18 608.756 598.11 611.59C598.11 611.59 601.24 599.87 606.71 602.21C612.18 604.55 615.9 610.02 615.9 610.02C615.9 610.02 618.43 599.09 624.68 601.43C629.89 603.41 641.12 612.57 634.43 629.55Z" stroke="#261C0E" stroke-width="3.43" stroke-linecap="round" stroke-linejoin="round"></path>
</svg>
